<svg xmlns="http://www.w3.org/2000/svg" viewBox="285 165 1380 315" role="img" aria-labelledby="title"><title>HirePrep AI monochrome light</title><g transform="translate(0 659) scale(.1 -.1)" fill="#FFFFFF" stroke="none"><path d="M3698 4060 c-68 -36 -104 -132 -75 -201 9 -22 55 -72 118 -129 182
-165 299 -277 299 -287 0 -5 -90 -92 -199 -192 -118 -109 -205 -196 -213 -215
-31 -73 -2 -164 66 -205 42 -27 130 -29 166 -4 14 9 57 46 95 82 39 36 167
153 286 258 119 106 221 204 227 218 15 32 15 82 2 122 -6 17 -58 71 -128 134
-342 307 -473 420 -497 429 -41 16 -106 11 -147 -10z"/>
<path d="M7850 4058 c-54 -27 -80 -73 -80 -138 0 -89 64 -150 159 -150 123 0
192 103 145 220 -20 49 -65 79 -131 86 -38 4 -58 0 -93 -18z"/>
<path d="M6400 3420 l0 -630 150 0 150 0 0 249 0 248 46 7 c60 8 527 8 548 0
14 -5 16 -37 16 -255 l0 -249 145 0 c131 0 145 2 146 18 0 9 1 292 2 627 l2
610 -145 0 -145 0 -3 -242 -2 -243 -305 0 -305 0 -2 243 -3 242 -147 3 -148 3
0 -631z"/>
<path d="M10005 4038 c-3 -7 -4 -290 -3 -628 l3 -615 148 -3 147 -3 0 206 0
205 191 0 c232 0 303 14 394 75 69 47 136 138 160 217 32 109 12 269 -45 358
-60 93 -141 148 -265 180 -70 18 -111 20 -402 20 -250 0 -325 -3 -328 -12z
m682 -277 c49 -28 78 -85 77 -151 -1 -56 -24 -101 -66 -132 -31 -22 -43 -23
-215 -26 l-183 -3 0 171 0 172 173 -4 c160 -3 175 -5 214 -27z"/>
<path d="M9295 3709 c-98 -12 -203 -66 -277 -142 -64 -65 -99 -131 -124 -227
-35 -136 4 -301 93 -400 97 -108 186 -151 353 -170 158 -18 319 24 410 106 48
43 100 110 100 129 0 7 -46 23 -112 39 -62 16 -118 30 -124 32 -6 3 -26 -9
-45 -26 -45 -40 -90 -54 -169 -55 -75 0 -147 24 -178 60 -23 27 -52 79 -52 94
0 7 116 10 343 10 188 -1 350 -1 360 0 14 1 17 11 17 65 0 136 -42 252 -126
345 -77 85 -247 154 -369 150 -16 -1 -61 -5 -100 -10z m180 -230 c44 -12 125
-86 125 -113 0 -14 -22 -16 -210 -16 -168 0 -210 3 -210 13 0 23 63 86 105
107 45 22 128 26 190 9z"/>
<path d="M12233 3710 c-68 -13 -160 -50 -215 -88 -67 -46 -116 -106 -157 -191
-35 -74 -36 -79 -36 -196 0 -118 1 -121 37 -198 46 -95 117 -168 209 -213 158
-77 399 -78 541 -2 81 43 197 172 175 194 -4 4 -61 20 -128 36 l-121 29 -38
-35 c-25 -22 -55 -38 -89 -45 -68 -14 -84 -14 -151 5 -40 11 -70 28 -98 56
-41 40 -60 74 -47 86 4 4 162 8 352 9 225 1 350 6 357 13 7 7 6 43 -2 118 -9
84 -19 121 -44 172 -74 151 -226 244 -412 255 -45 2 -105 0 -133 -5z m188
-235 c24 -9 54 -26 67 -38 22 -20 52 -68 52 -82 0 -3 -97 -5 -215 -5 -216 0
-216 0 -201 28 21 40 69 82 112 97 52 19 132 18 185 0z"/>
<path d="M13437 3710 c-63 -11 -122 -42 -174 -92 l-42 -41 -3 59 -3 59 -135 0
-135 0 0 -650 0 -650 138 -3 137 -3 0 251 0 250 55 -44 c32 -26 77 -52 107
-61 99 -29 274 -13 346 32 102 65 165 144 203 256 29 85 29 246 0 329 -25 72
-79 155 -133 203 -50 45 -145 91 -217 105 -60 11 -75 11 -144 0z m123 -268
c56 -35 86 -78 100 -149 23 -108 -17 -213 -99 -261 -39 -23 -57 -27 -123 -27
-69 1 -81 3 -120 31 -108 77 -129 260 -41 365 68 80 189 97 283 41z"/>
<path d="M8693 3696 c-58 -19 -107 -50 -142 -94 l-30 -37 -1 62 c0 62 0 62
-42 68 -24 3 -88 5 -143 3 l-100 -3 -3 -452 -2 -453 145 0 145 0 0 248 c0 240
1 248 24 299 41 88 137 131 267 120 l69 -6 0 123 c0 124 0 124 -31 130 -48 9
-109 6 -156 -8z"/>
<path d="M11635 3696 c-62 -17 -99 -41 -143 -92 l-41 -46 -3 69 -3 68 -135 0
-135 0 -3 -453 -2 -453 142 3 143 3 3 249 c3 228 5 252 24 293 24 51 82 98
140 114 22 5 74 9 116 8 l77 -2 3 120 c3 120 3 120 -29 127 -45 9 -108 6 -154
-8z"/>
<path d="M7787 3693 c-4 -3 -7 -208 -7 -455 l0 -448 145 0 145 0 0 449 c0 400
-2 450 -16 455 -21 8 -259 8 -267 -1z"/>
<path d="M4588 3101 c-178 -5 -199 -8 -225 -27 -88 -64 -83 -208 9 -264 31
-18 51 -20 273 -20 218 0 243 2 271 19 36 22 74 93 74 137 0 44 -40 116 -77
137 -40 23 -84 25 -325 18z"/>
<path d="M14263 2783 l-283 -3 0 -110 0 -110 328 2 327 3 3 108 c1 59 1 107 0
108 -19 4 -142 4 -375 2z"/><path d="M3186 4695 c-57 -20 -88 -46 -114 -96 -22 -44 -22 -44 -24 -1195 -2
-1150 -2 -1150 23 -1199 13 -27 41 -63 62 -79 31 -25 49 -31 101 -34 46 -3 72
0 97 13 47 24 78 54 100 97 18 36 19 77 19 1193 0 1124 -1 1157 -19 1194 -26
50 -81 97 -128 110 -49 14 -69 13 -117 -4z"/>
<path d="M5312 4701 c-55 -14 -112 -59 -133 -104 -18 -40 -19 -84 -19 -1200 0
-1270 -4 -1192 61 -1254 42 -40 77 -53 138 -53 64 0 128 34 166 88 30 44 30
44 30 1217 l0 1173 -30 44 c-50 70 -138 107 -213 89z"/>
<path d="M15183 4013 c-8 -21 -29 -74 -45 -118 -16 -44 -50 -132 -75 -195 -25
-63 -60 -153 -78 -200 -60 -155 -102 -263 -189 -483 -47 -119 -86 -220 -86
-222 0 -3 68 -4 151 -3 l152 3 47 120 47 120 252 3 c235 2 253 1 258 -15 2
-10 23 -65 46 -123 l43 -105 157 -3 c86 -1 157 0 157 4 0 3 -16 45 -36 92 -19
48 -49 119 -64 157 -16 39 -40 99 -53 135 -14 36 -38 99 -55 140 -17 41 -74
188 -127 325 -53 138 -110 285 -127 328 l-30 77 -165 0 c-164 0 -164 0 -180
-37z m220 -420 c25 -65 61 -160 80 -210 l35 -93 -159 0 -159 0 15 38 c74 192
115 304 126 340 7 23 13 42 14 42 2 0 23 -53 48 -117z"/>
<path d="M16108 3508 c-1 -299 -2 -581 -2 -628 l1 -85 146 -3 147 -3 0 631 0
630 -145 0 -145 0 -2 -542z"/></g></svg>